<?xml version="1.0" encoding="utf-8"?>
<!-- Generator: Adobe Illustrator 26.0.3, SVG Export Plug-In . SVG Version: 6.00 Build 0)  -->
<svg version="1.1" id="Calque_1" xmlns="http://www.w3.org/2000/svg" xmlns:xlink="http://www.w3.org/1999/xlink" x="0px" y="0px"
	 viewBox="0 0 841.9 595.3" style="enable-background:new 0 0 841.9 595.3;" xml:space="preserve">
<style type="text/css">
	.st0{fill:#FFD6D6;}
</style>
<g>
	<path class="st0" d="M664.8,466.2c-8.3,21.1-24.8,27.2-46.1,27.2c-105.1-0.3-210.2-0.1-315.4-0.2c-4,0-8,0.1-11.9-0.4
		c-29.8-4.3-43.1-31.1-28.1-58.2c21.8-39.4,44.4-78.3,66.6-117.4c29.2-51.3,58.4-102.6,87.6-153.9c1.7-3,3.4-6,5.4-8.8
		c16.4-23.1,44.4-24,61.6-1.4c7.3,9.7,13.2,20.4,19.6,30.8c50.4,82.2,100.7,164.4,151.1,246.6c4.1,6.8,7.1,14,9.6,21.4
		C664.8,456.7,664.8,461.5,664.8,466.2z M460.5,457.8c53.1,0,106.2,0,159.3-0.1c2.8,0,6.6,1.5,8.1-1.4c1.4-2.7-1.7-5.2-3.2-7.6
		c-37.6-61.5-75.2-122.9-112.8-184.3c-17.6-28.7-35.1-57.4-52.7-86c-4.6-7.5-5-7.4-9.6,0.2c-0.4,0.7-0.9,1.3-1.2,2
		C397.6,269.9,346.8,359.2,296,448.5c-0.9,1.6-1.6,3.3-2.5,4.9c-1.5,2.7-0.5,4,2.3,4.2c2.6,0.2,5.3,0.3,7.9,0.3
		C355.9,457.9,408.2,457.8,460.5,457.8z"/>
</g>
<polyline class="st0" points="455,158.9 648.3,466.3 279,466.3 451.7,158.9 "/>
</svg>
