<?xml version="1.0" encoding="utf-8"?>
<!-- Generator: Adobe Illustrator 26.0.3, SVG Export Plug-In . SVG Version: 6.00 Build 0)  -->
<svg version="1.1" id="Calque_1" xmlns="http://www.w3.org/2000/svg" xmlns:xlink="http://www.w3.org/1999/xlink" x="0px" y="0px"
	 viewBox="0 0 841.9 595.3" style="enable-background:new 0 0 841.9 595.3;" xml:space="preserve">
<style type="text/css">
	.st0{fill:#FFD6D6;}
</style>
<g>
	<path class="st0" d="M257.1,163.8c8.3-21.1,24.8-27.2,46.1-27.2c105.1,0.3,210.2,0.1,315.4,0.2c4,0,8-0.1,11.9,0.4
		c29.8,4.3,43.1,31.1,28.1,58.2c-21.8,39.4-44.4,78.3-66.6,117.4c-29.2,51.3-58.4,102.6-87.6,153.9c-1.7,3-3.4,6-5.4,8.8
		c-16.4,23.1-44.4,24-61.6,1.4c-7.3-9.7-13.2-20.4-19.6-30.8c-50.4-82.2-100.7-164.4-151.1-246.6c-4.1-6.8-7.1-14-9.6-21.4
		C257.1,173.3,257.1,168.6,257.1,163.8z M461.4,172.2c-53.1,0-106.2,0-159.3,0.1c-2.8,0-6.6-1.5-8.1,1.4c-1.4,2.7,1.7,5.2,3.2,7.6
		c37.6,61.5,75.2,122.9,112.8,184.3c17.6,28.7,35.1,57.4,52.7,86c4.6,7.5,5,7.4,9.6-0.2c0.4-0.7,0.9-1.3,1.2-2
		c50.8-89.3,101.6-178.5,152.4-267.8c0.9-1.6,1.6-3.3,2.5-4.9c1.5-2.7,0.5-4-2.3-4.2c-2.6-0.2-5.3-0.3-7.9-0.3
		C566,172.2,513.7,172.2,461.4,172.2z"/>
</g>
<polyline class="st0" points="466.9,471.1 273.6,163.7 642.9,163.7 470.2,471.1 "/>
</svg>
