<?xml version="1.0" encoding="utf-8"?>
<!-- Generator: Adobe Illustrator 26.0.3, SVG Export Plug-In . SVG Version: 6.00 Build 0)  -->
<svg version="1.1" id="Calque_1" xmlns="http://www.w3.org/2000/svg" xmlns:xlink="http://www.w3.org/1999/xlink" x="0px" y="0px"
	 viewBox="0 0 402.3 392.9" style="enable-background:new 0 0 402.3 392.9;" xml:space="preserve">
<style type="text/css">
	.st0{fill:#4B4B4B;}
</style>
<g>
	<path class="st0" d="M402.3,246.4c-1.5,0.5-1.4,2-1.8,3.2c-8.6,27.9-29.3,43.3-58.9,43.4c-40.6,0.1-81.1,0.1-121.7-0.1
		c-5.3,0-9.1,1.4-13.1,5.2c-29.6,29.2-59.5,58.1-89.4,87c-3.6,3.4-6.6,8.9-13.1,6.2c-6.7-2.8-5.1-9-5.1-14.3
		c-0.1-25.9-0.2-51.8,0.1-77.7c0.1-5.2-1.4-6.5-6.5-6.4c-14.1,0-28.3,1-42.3-0.6C22.4,289,0.4,265.4,0.3,237.1
		c-0.3-60.2-0.4-120.3,0-180.5C0.4,24.9,25.9,0.4,58.6,0.2c37.7-0.3,75.4-0.1,113-0.1c55.5,0,110.9,0,166.4,0
		c34.2,0,52.7,13.6,63,46.1c0.1,0.3,0.8,0.5,1.2,0.8C402.3,113.4,402.3,179.9,402.3,246.4z M130.4,312.1c2.4-2.1,3.9-3.2,5.3-4.5
		c21.6-19.6,43.4-39.2,64.8-59c4-3.7,8.1-5.4,13.8-5.3c35,0.2,70,0.1,104.9,0.1c23.7,0,38.1-13.5,38.1-35.4c0-44.7,0-89.5,0-134.2
		c0-20.4-14.7-34.5-36.4-34.5c-78.9-0.1-157.9-0.1-236.8,0c-21.8,0-36.5,14-36.5,34.4c0,44.9,0,89.9,0,134.8
		c0,21.1,14.5,34.7,37.4,34.9c11.8,0.1,23.6,0,35.4,0c8.6,0,10,1.3,10,9.2C130.4,272,130.4,291.3,130.4,312.1z"/>
</g>
</svg>
