<?xml version="1.0" encoding="utf-8"?>
<!-- Generator: Adobe Illustrator 26.0.3, SVG Export Plug-In . SVG Version: 6.00 Build 0)  -->
<svg version="1.1" id="Calque_1" xmlns="http://www.w3.org/2000/svg" xmlns:xlink="http://www.w3.org/1999/xlink" x="0px" y="0px"
	 viewBox="0 0 841.9 595.3" style="enable-background:new 0 0 841.9 595.3;" xml:space="preserve">
<style type="text/css">
	.st0{fill:#FFD6D6;}
</style>
<g>
	<path class="st0" d="M612.8,344.3c-1.5,0.5-1.3,1.9-1.7,3c-8.1,26.6-27.8,41.2-56,41.3c-38.6,0.1-77.1,0.1-115.7-0.1
		c-5.1,0-8.7,1.3-12.4,4.9c-28.2,27.7-56.6,55.2-85,82.7c-3.4,3.3-6.3,8.5-12.4,5.9c-6.4-2.7-4.8-8.6-4.9-13.6
		c-0.1-24.6-0.2-49.2,0.1-73.9c0.1-4.9-1.3-6.1-6.2-6.1c-13.4,0-26.9,1-40.3-0.6c-26.7-3.1-47.6-25.6-47.8-52.5
		c-0.3-57.2-0.3-114.4,0-171.6c0.2-30.1,24.4-53.3,55.5-53.6c35.8-0.3,71.6-0.1,107.4-0.1c52.7,0,105.5,0,158.2,0
		c32.5,0,50.1,12.9,59.9,43.8c0.1,0.3,0.8,0.5,1.2,0.7C612.8,217.9,612.8,281.1,612.8,344.3z M339.7,457.3c2.8-2.5,4.4-3.9,6-5.4
		c24.6-23.9,49.3-47.7,73.7-71.9c4.6-4.5,9.2-6.6,15.7-6.5c39.8,0.3,79.6,0.2,119.4,0.1c26.9,0,43.4-16.4,43.4-43.1
		c0-54.5,0-108.9,0-163.4c0-24.8-16.7-41.9-41.4-42c-89.8-0.1-179.6-0.1-269.4,0c-24.8,0-41.5,17.1-41.5,41.9
		c-0.1,54.7,0,109.4,0,164.1c0,25.7,16.5,42.2,42.5,42.4c13.4,0.1,26.9,0,40.3,0c9.8,0,11.4,1.5,11.4,11.2
		C339.7,408.4,339.7,432,339.7,457.3z"/>
</g>
<path class="st0" d="M239,315.3v-159c0,0,10-34,41-38s221,0,221,0l72,6.8c0,0,28-8.8,31,41.2s0,176,0,176s2,32-35,37s-139,0-139,0
	l-92,91h-9l2-83l-6-5l-30-1c0,0-44-6-49.5-18S239,315.3,239,315.3z"/>
</svg>
