<?xml version="1.0" encoding="utf-8"?>
<!-- Generator: Adobe Illustrator 26.0.3, SVG Export Plug-In . SVG Version: 6.00 Build 0)  -->
<svg version="1.1" id="Calque_1" xmlns="http://www.w3.org/2000/svg" xmlns:xlink="http://www.w3.org/1999/xlink" x="0px" y="0px"
	 viewBox="0 0 841.9 595.3" style="enable-background:new 0 0 841.9 595.3;" xml:space="preserve">
<style type="text/css">
	.st0{fill:#FD2D01;}
</style>
<g>
	<path class="st0" d="M621,163c-1.6,1.4-1.3,3.5-1.8,5.3c-2.5,7.7-6.7,14.3-12.4,20C548.3,246.7,489.9,305,431.6,363.4
		c-2.3,2.3-4.8,3.7-8,4.6c-26.8,7.4-53.5,14.9-80.3,22.3c-10.2,2.8-16.6-3.4-13.8-13.6c7.4-26.9,15-53.8,22.4-80.7
		c0.8-3,2.3-5.5,4.4-7.6c58.5-58.5,116.9-117,175.4-175.4c19.1-19,46.3-18.9,65.5,0.1c3.3,3.3,6.6,6.6,9.9,9.9
		c7,7,11.6,15.2,13.1,25.1c0,0.3,0.4,0.5,0.7,0.8C621,153.6,621,158.3,621,163z M423.3,342.8c1.3-0.2,1.8-1.2,2.5-1.9
		c47.1-47,94.1-94.1,141.2-141.1c1.6-1.6,2-2.4,0.1-4.2c-14.4-14.2-28.6-28.5-42.8-42.8c-1.7-1.7-2.6-1.7-4.2,0
		C473,200,425.8,247.1,378.6,294.2c-1.5,1.5-1.8,2.3-0.1,4c14.4,14.3,28.8,28.7,43.1,43C422.2,341.8,422.8,342.3,423.3,342.8z
		 M600.9,155.9c0-5.9-1.5-11.3-5.3-15.9c-4.8-5.6-10-11-15.7-15.7c-8.2-6.8-20.3-7.3-29.1-1.3c-5.1,3.5-8.9,8.3-13.4,12.5
		c-1.4,1.3-0.3,2,0.5,2.8c14.5,14.5,29.1,29.1,43.6,43.7c1.3,1.3,2.1,1.4,3.3,0c2.8-3,5.9-5.9,8.8-8.9
		C598.2,168.3,600.9,162.6,600.9,155.9z M403.8,352.8c-12.2-12.2-24.5-24.5-36.8-36.8c-4.6,16.6-9.3,33.5-14.1,50.9
		C370.5,362,387.4,357.4,403.8,352.8z"/>
	<path class="st0" d="M410.4,496.9c-46,0-91.9,0-137.9,0c-24,0-43.3-14-49.6-35.8c-1.4-4.9-2.1-9.9-2.1-15c0-85.8,0-171.6,0-257.4
		c0-29,21.1-50.5,50.4-50.9c28.9-0.3,57.8-0.1,86.7-0.1c6.6,0,11.2,4.2,11.2,10c0,5.7-4.8,9.9-11.3,9.9c-28.5,0-57,0-85.6,0
		c-15.4,0-26.5,8.4-30.6,22.9c-0.9,3.2-1,6.4-1,9.7c0,84.8,0,169.5,0,254.3c0,16.3,8,27.6,22.5,31.6c3.1,0.9,6.4,1.1,9.7,1.1
		c91.7,0,183.3,0,275,0c15.7,0,26.8-8,31-22.3c1-3.4,1.2-6.9,1.2-10.4c0-28.1,0-56.3,0-84.4c0-6.1,3.3-10.4,8.2-11.1
		c6.4-0.9,11.5,3.6,11.5,10.5c0.1,17.1,0,34.1,0,51.2c0,12.9,0.2,25.8-0.2,38.7c-0.8,25.7-21.5,46.8-47.2,47.4
		c-28,0.6-56,0.2-84,0.2C449.2,496.9,429.8,496.9,410.4,496.9z"/>
</g>
</svg>
