<?xml version="1.0" encoding="utf-8"?>
<!-- Generator: Adobe Illustrator 26.0.3, SVG Export Plug-In . SVG Version: 6.00 Build 0)  -->
<svg version="1.1" id="Calque_1" xmlns="http://www.w3.org/2000/svg" xmlns:xlink="http://www.w3.org/1999/xlink" x="0px" y="0px"
	 viewBox="0 0 841.9 595.3" style="enable-background:new 0 0 841.9 595.3;" xml:space="preserve">
<style type="text/css">
	.st0{fill:#FFD6D6;}
</style>
<g>
	<path class="st0" d="M504.8,101.3c12.3,3.4,19.4,13.5,27.1,22.4c5.9,6.8,4.9,18.2-0.8,25.2c-1.3,1.6-2.7,3-4.2,4.5
		c-47.1,47.1-94.1,94.2-141.3,141.2c-2.7,2.7-2.4,3.9,0.1,6.4c47.4,47.3,94.8,94.7,142.1,142c8.4,8.4,10.5,18.4,4.7,27.4
		c-5.3,8.1-12.4,15-20.4,20.5c-7.7,5.2-17.3,4-24.5-1.9c-1.1-0.9-2.1-1.8-3.1-2.8C427.3,429,370.2,371.9,313.1,314.8
		c-8.5-8.5-10.3-18.5-5.1-27.8c1.3-2.3,3-4.1,4.8-5.9c57.3-57.3,114.6-114.6,171.9-172c3.8-3.8,8.2-6.2,13.2-7.8
		C500.2,101.3,502.5,101.3,504.8,101.3z"/>
</g>
</svg>
