<?xml version="1.0" encoding="utf-8"?>
<!-- Generator: Adobe Illustrator 26.0.3, SVG Export Plug-In . SVG Version: 6.00 Build 0)  -->
<svg version="1.1" id="Calque_1" xmlns="http://www.w3.org/2000/svg" xmlns:xlink="http://www.w3.org/1999/xlink" x="0px" y="0px"
	 viewBox="0 0 841.9 595.3" style="enable-background:new 0 0 841.9 595.3;" xml:space="preserve">
<style type="text/css">
	.st0{fill:#FFFFFF;}
</style>
<g>
	<path class="st0" d="M316,502.8c-2-2.1-5.1-1.9-7.5-3.1c-14.1-6.8-20.7-18.3-21.9-33.6c-3.2-40.1-6.5-80.3-9.9-120.4
		c-3.6-43.6-7.3-87.2-10.9-130.7c-0.2-1.8-0.4-3-2.4-3.9c-16.8-7.5-25.3-23.6-21.7-40.7c3.5-16.6,18.2-28.2,36.3-28.3
		c18.1-0.1,36.2-0.1,54.4,0.1c3.5,0,4.8-0.6,4.6-4.4c-0.5-8.3-0.1-16.5,4-24c6.9-12.7,17.8-19.3,32.1-19.4c31.8-0.3,63.7-0.3,95.5,0
		c20.5,0.2,35.5,15.4,36.2,35.9c0,0.3,0,0.5,0,0.8c0.1,3.6-1.2,8.4,0.6,10.4c2.1,2.3,7,0.7,10.7,0.7c15.9,0.1,31.7,0,47.6,0.1
		c17.5,0.1,30.7,10,35.7,26.4c5,16.5-3.6,35.2-19.6,42c-2.6,1.1-3.8,2.3-4.1,5.3c-2.2,28-4.6,55.9-6.9,83.9
		c-2.3,27.3-4.6,54.6-6.9,81.9c-2,24-3.8,48-6,71.9c-0.8,8.8-0.4,17.9-3.8,26.3c-5,12.2-14,19.7-27,22.3c-0.5,0.1-1,0.1-1.2,0.8
		C454.7,502.8,385.3,502.8,316,502.8z M420.8,213.9c-2.9,0-5.9,0-8.8,0c-39.4,0-78.9,0-118.3-0.1c-3.1,0-3.9,0.6-3.5,3.9
		c0.9,7.4,1.3,14.8,1.9,22.2c2,23.8,3.9,47.7,5.9,71.5c2.3,27.7,4.6,55.4,6.9,83.1c2,23.7,3.8,47.4,5.9,71.1
		c0.9,9.7,5.1,13.2,14.9,13.2c63.4,0,126.9,0,190.3,0c1.1,0,2.1,0,3.2,0c6-0.4,10.5-4.5,11.3-10.4c0.5-3.3,0.6-6.6,0.9-9.9
		c3.4-40,6.8-80,10.1-120c3.3-40.1,6.5-80.3,10-120.4c0.3-3.7-0.4-4.3-3.9-4.3C505.3,213.9,463,213.9,420.8,213.9z M420.7,166
		c-46.8,0-93.5,0-140.3,0c-1.5,0-2.9-0.1-4.4,0.1c-6,0.5-10.7,5.2-11.2,11.1c-0.4,5.9,3.6,11.3,9.5,12.5c1.7,0.4,3.4,0.3,5.2,0.3
		c94.2,0,188.4,0,282.6,0c1.3,0,2.7,0.1,4-0.1c5.9-0.7,10.5-5.8,10.6-11.6c0.1-6-4.4-11.3-10.5-12.1c-1.4-0.2-2.9-0.1-4.4-0.1
		C514.8,166,467.8,166,420.7,166z M420.5,142c16.4,0,32.7,0,49.1,0c3.6,0,8.5,1.3,10.4-0.5c2.4-2.3,0.7-7.3,0.7-11
		c-0.1-7.3-5-12.2-12.3-12.3c-4.8-0.1-9.6,0-14.4,0c-26.6,0-53.2,0-79.9,0c-8.5,0-13.3,4.8-13.3,13.4c0,2.4,0.2,4.8-0.1,7.2
		c-0.3,2.8,0.6,3.5,3.4,3.5C383,142,401.8,142,420.5,142z"/>
	<path class="st0" d="M504.7,251.2c-2.1,33-4.1,65-6.1,96.9c-1.7,27.7-3.4,55.5-5.1,83.2c-0.2,4-0.5,8-0.8,11.9
		c-0.5,6.9-5.7,11.8-12.3,11.6c-6.7-0.1-12-5.5-11.6-12.6c0.7-14.6,1.7-29.2,2.6-43.8c1.5-23.7,3-47.5,4.5-71.2
		c1.6-26,3.2-52,4.9-78c0.4-7,6.2-11.9,12.8-11.4C500.7,238.4,505,244,504.7,251.2z"/>
	<path class="st0" d="M336.7,248.3c-0.3-6.3,7.3-12.9,16-9.8c5,1.8,7.7,5.5,8.1,10.8c1.4,21.6,2.7,43.2,4,64.9
		c2,32.4,4.1,64.7,6.1,97.1c0.6,9.9,1.3,19.9,1.8,29.9c0.4,7.9-4.6,13.6-11.7,13.7c-6.9,0.1-11.8-5-12.3-12.9
		c-2.5-41-5.2-82-7.7-123C339.7,296.7,338.3,274.5,336.7,248.3z"/>
	<path class="st0" d="M432.8,346.3c0,31.4,0,62.7,0,94.1c0,2,0.1,3.9-0.6,5.9c-1.8,5.5-6.9,9-12.5,8.5c-5.6-0.5-10.1-5-10.8-10.6
		c-0.2-1.4-0.1-2.9-0.1-4.4c0-62.3,0-124.7,0-187c0-1.2,0-2.4,0-3.6c0.4-6.5,5.7-11.5,12-11.4c6.4,0,11.6,5,11.8,11.6
		c0.2,6.1,0.1,12.2,0.1,18.3C432.8,294,432.8,320.2,432.8,346.3z"/>
</g>
</svg>
