<?xml version="1.0" encoding="utf-8"?>
<!-- Generator: Adobe Illustrator 26.0.3, SVG Export Plug-In . SVG Version: 6.00 Build 0)  -->
<svg version="1.1" id="Calque_1" xmlns="http://www.w3.org/2000/svg" xmlns:xlink="http://www.w3.org/1999/xlink" x="0px" y="0px"
	 viewBox="0 0 351.3 351.3" style="enable-background:new 0 0 351.3 351.3;" xml:space="preserve">
<style type="text/css">
	.st0{fill:#1C1C22;}
</style>
<g>
	<path class="st0" d="M287.3,143.8c0,42,0,84.1,0,126.1c0,8.7-4,14.6-11.4,16.9c-2,0.6-3.9,0.6-5.9,0.6c-84.2,0-168.4,0-252.5,0
		c-11,0-17.5-6.4-17.5-17.4c0-84.2,0-168.4,0-252.5C0,6.7,6.6,0,17.2,0c84.3,0,168.6,0,252.9,0c10.7,0,17.2,6.6,17.2,17.3
		C287.4,59.5,287.3,101.6,287.3,143.8z M32,143.5c0,36,0,72.1-0.1,108.1c0,3.3,0.7,4.1,4,4.1c71.8-0.1,143.6-0.1,215.4,0
		c3.5,0,4.2-1,4.2-4.3c-0.1-71.8-0.1-143.6,0-215.4c0-3.5-1-4-4.1-4c-71.9,0.1-143.9,0.1-215.8,0c-3.2,0-3.8,0.8-3.8,3.9
		C32,71.7,32,107.6,32,143.5z"/>
	<path class="st0" d="M351.3,207.6c0,41.6,0,83.3,0,124.9c0,12.6-6.2,18.8-18.8,18.8c-83.3,0-166.6,0-249.9,0
		c-2.6,0-5.2-0.1-7.8-0.9c-6.5-2.1-10.7-7.9-10.8-15c-0.1-9.7,0-19.5-0.1-29.2c0-2.4,0.7-2.9,2.9-2.9c8.7,0.1,17.5,0.2,26.2,0
		c2.5,0,2.9,0.8,2.8,3c-0.2,3.6,0,7.2-0.1,10.8c0,1.6,0.5,2.3,2.1,2.1c0.7-0.1,1.5,0,2.2,0c71.7,0,143.4,0,215.1,0.1
		c3.4,0,4.2-0.8,4.2-4.2c-0.1-71.7-0.1-143.4,0-215.1c0-3.7-0.9-4.8-4.5-4.4c-3,0.3-6,0-9,0.1c-1.9,0.1-2.6-0.3-2.6-2.4
		c0.1-9,0.1-18,0-26.9c0-2.4,1-2.5,2.9-2.5c9.5,0.1,19,0,28.4,0.1c9.8,0.1,16.3,6.6,16.6,16.4c0,1.1,0,2.2,0,3.4
		C351.3,125,351.3,166.3,351.3,207.6z"/>
	<path class="st0" d="M127.8,186.9c0-8.1-0.1-16.2,0.1-24.3c0-2.3-0.6-2.9-2.9-2.9c-16.1,0.1-32.2,0-48.3,0.1c-3,0-3.7-0.8-3.7-3.7
		c0.2-8.3,0.2-16.7,0-25.1c-0.1-2.9,0.9-3.4,3.5-3.4c16,0.1,31.9,0,47.9,0.1c2.8,0,3.5-0.7,3.4-3.4c-0.2-16.1,0-32.2-0.1-48.3
		c0-2.3,0.4-3.2,3-3.1c8.6,0.2,17.2,0.2,25.8,0c2.6,0,3.3,0.7,3.3,3.3c-0.1,16.1,0,32.2-0.1,48.3c0,2.6,0.6,3.3,3.2,3.3
		c16.1-0.1,32.2,0,48.3-0.1c2.5,0,3.4,0.4,3.4,3.2c-0.2,8.6-0.2,17.2,0,25.8c0,2.5-0.7,3.1-3.1,3.1c-16.1-0.1-32.2,0-48.3-0.1
		c-2.8,0-3.5,0.7-3.5,3.5c0.1,16,0,31.9,0.1,47.9c0,2.8-0.7,3.6-3.5,3.5c-8.5-0.2-17-0.2-25.4,0c-2.8,0.1-3.2-0.9-3.2-3.4
		C127.9,203.1,127.8,195,127.8,186.9z"/>
</g>
</svg>
